# File produced by Open Asset Import Library (http://www.assimp.sf.net)
# (assimp v5.0.1588609223)

mtllib result.mtl

# 48 vertex positions
v  -4 -7 1.9999999
v  -4 -7 -2.0000002
v  4 -7 -2.0000002
v  4 -7 1.9999999
v  -4 5 1.9999994
v  4 5 1.9999994
v  4 5 -2.0000007
v  -4 5 -2.0000007
v  -4 5 3.9999998
v  -4 5 -4
v  4 5 -4
v  4 5 3.9999998
v  -4 13 3.9999993
v  4 13 3.9999993
v  4 13 -4.0000005
v  -4 13 -4.0000005
v  -4 -13 6.000001
v  -4 -13 2.0000005
v  -2.3841858e-07 -13 2.0000005
v  -2.3841858e-07 -13 6.000001
v  -4 -6.9999995 6.0000005
v  -2.3841858e-07 -6.9999995 6.0000005
v  -2.3841858e-07 -7 2.0000002
v  -4 -7 2.0000002
v  0 -13 6.000001
v  0 -13 2.0000005
v  4 -13 2.0000005
v  4 -13 6.000001
v  0 -6.9999995 6.0000005
v  4 -6.9999995 6.0000005
v  4 -7 2.0000002
v  0 -7 2.0000002
v  -4 -13 -1.9999994
v  -4 -13 -5.999999
v  -2.3841858e-07 -13 -5.999999
v  -2.3841858e-07 -13 -1.9999994
v  -4 -7 -1.9999996
v  -2.3841858e-07 -7 -1.9999996
v  -2.3841858e-07 -7.0000005 -5.9999995
v  -4 -7.0000005 -5.9999995
v  0 -13 -1.9999994
v  0 -13 -5.999999
v  4 -13 -5.999999
v  4 -13 -1.9999994
v  0 -7 -1.9999996
v  4 -7 -1.9999996
v  4 -7.0000005 -5.9999995
v  0 -7.0000005 -5.9999995

# 39 UV coordinates
vt 0.4375 0.6875 0
vt 0.4375 0.75 0
vt 0.5625 0.75 0
vt 0.56271034 0.6875 0
vt 0.3125 0.6875 0
vt 0.3125 0.75 0
vt 0.3125 0.5 0
vt 0.4375 0.5 0
vt 0.5 0.5 0
vt 0.5 0.6875 0
vt 0.625 0.5 0
vt 0.625 0.6875 0
vt 0.25 0.5 0
vt 0.25 0.6875 0
vt 0.25 0.875 0
vt 0.25 1 0
vt 0.375 1 0
vt 0.375 0.875 0
vt 0.125 0.875 0
vt 0.125 1 0
vt 0.125 0.75 0
vt 0.25 0.75 0
vt 0.375 0.75 0
vt 0.5 0.75 0
vt 0.5 0.875 0
vt 0 0.75 0
vt 0.12499999 0.875 0
vt 0 0.875 0
vt 0.125 0.6875 0
vt 0.1875 0.75 0
vt 0.1875 0.6875 0
vt 0.0625 0.6875 0
vt 0.0625 0.75 0
vt 0.0625 0.5938158 0
vt 0.125 0.5938158 0
vt 0.1875 0.5938158 0
vt 0.25 0.5938158 0
vt 0 0.5938158 0
vt 0 0.6875 0

# 6 vertex normals
vn 0 -1 4.3711388e-08
vn 0 1 -4.3711388e-08
vn 0 4.3711388e-08 1
vn 1 0 0
vn 0 -4.3711388e-08 -1
vn -1 0 -0

# Mesh 'Creeper' with 36 faces
g Creeper
usemtl 02 - Default
f  1/1/1 2/2/1 3/3/1 4/4/1
f  5/5/2 6/1/2 7/2/2 8/6/2
f  1/7/3 4/8/3 6/1/3 5/5/3
f  4/8/4 3/9/4 7/10/4 6/1/4
f  3/9/5 2/11/5 8/12/5 7/10/5
f  2/13/6 1/7/6 5/5/6 8/14/6
f  9/15/1 10/16/1 11/17/1 12/18/1
f  13/19/2 14/15/2 15/16/2 16/20/2
f  9/21/3 12/22/3 14/15/3 13/19/3
f  12/22/4 11/23/4 15/18/4 14/15/4
f  11/23/5 10/24/5 16/25/5 15/18/5
f  10/26/6 9/21/6 13/27/6 16/28/6
f  17/29/1 18/21/1 19/30/1 20/31/1
f  21/32/2 22/29/2 23/21/2 24/33/2
f  17/34/3 20/35/3 22/29/3 21/32/3
f  20/35/4 19/36/4 23/31/4 22/29/4
f  19/36/5 18/37/5 24/14/5 23/31/5
f  18/38/6 17/34/6 21/32/6 24/39/6
f  25/29/1 26/21/1 27/30/1 28/31/1
f  29/32/2 30/29/2 31/21/2 32/33/2
f  25/34/3 28/35/3 30/29/3 29/32/3
f  28/35/4 27/36/4 31/31/4 30/29/4
f  27/36/5 26/37/5 32/14/5 31/31/5
f  26/38/6 25/34/6 29/32/6 32/39/6
f  33/29/1 34/21/1 35/30/1 36/31/1
f  37/32/2 38/29/2 39/21/2 40/33/2
f  33/34/3 36/35/3 38/29/3 37/32/3
f  36/35/4 35/36/4 39/31/4 38/29/4
f  35/36/5 34/37/5 40/14/5 39/31/5
f  34/38/6 33/34/6 37/32/6 40/39/6
f  41/29/1 42/21/1 43/30/1 44/31/1
f  45/32/2 46/29/2 47/21/2 48/33/2
f  41/34/3 44/35/3 46/29/3 45/32/3
f  44/35/4 43/36/4 47/31/4 46/29/4
f  43/36/5 42/37/5 48/14/5 47/31/5
f  42/38/6 41/34/6 45/32/6 48/39/6

