# File produced by Open Asset Import Library (http://www.assimp.sf.net)
# (assimp v5.0.1588609223)

mtllib result.mtl

# 48 vertex positions
v  -4 -4 1.9999996
v  -4 -4 -2.0000002
v  4 -4 -2.0000002
v  4 -4 1.9999996
v  -4 8 1.9999992
v  4 8 1.9999992
v  4 8 -2.0000007
v  -4 8 -2.0000007
v  -4 8 3.9999998
v  -4 8 -4.0000005
v  4 8 -4.0000005
v  4 8 3.9999998
v  -4 16 3.9999993
v  4 16 3.9999993
v  4 16 -4.000001
v  -4 16 -4.000001
v  -6 -4 1.0000001
v  -6 -4 -0.99999988
v  -4 -4 -0.99999994
v  -4 -4 1.0000001
v  -6 8 0.99999964
v  -4 8 0.99999964
v  -4 8 -1.0000005
v  -6 8 -1.0000004
v  6 -4 1.0000001
v  4 -4 1.0000001
v  4 -4 -0.99999994
v  6 -4 -0.99999988
v  6 8 0.99999964
v  6 8 -1.0000004
v  4 8 -1.0000005
v  4 8 0.99999964
v  3 -16 1.0000001
v  1 -16 1.0000001
v  1 -16 -0.99999988
v  3 -16 -0.99999988
v  3 -4 0.99999964
v  3 -4 -1.0000004
v  1 -4 -1.0000005
v  1 -4 0.99999964
v  -3 -16 1.0000001
v  -3 -16 -0.99999988
v  -1 -16 -0.99999988
v  -1 -16 1.0000001
v  -3 -4 0.99999964
v  -1 -4 0.99999964
v  -1 -4 -1.0000005
v  -3 -4 -1.0000004

# 41 UV coordinates
vt 0.4375 0.6875 0
vt 0.4375 0.75 0
vt 0.5625 0.75 0
vt 0.56237519 0.6875 0
vt 0.3125 0.6875 0
vt 0.3125 0.75 0
vt 0.3125 0.5 0
vt 0.4375 0.5 0
vt 0.5 0.5 0
vt 0.5 0.6875 0
vt 0.625 0.5 0
vt 0.625 0.6875 0
vt 0.25 0.5 0
vt 0.25 0.6875 0
vt 0.25 1 0
vt 0.375 1 0
vt 0.375 0.875 0
vt 0.25 0.875 0
vt 0.125 0.875 0
vt 0.125 1 0
vt 0.125 0.75 0
vt 0.25 0.75 0
vt 0.375 0.75 0
vt 0.5 0.75 0
vt 0.5 0.875 0
vt 0 0.75 0
vt 0.12500001 0.875 0
vt 0 0.875 0
vt 0.68749976 0.71875477 0
vt 0.68749976 0.75 0
vt 0.7187497 0.75 0
vt 0.7187497 0.71875477 0
vt 0.65624988 0.71875477 0
vt 0.65624988 0.75 0
vt 0.65624988 0.53749979 0
vt 0.68749976 0.53749979 0
vt 0.7187497 0.53749979 0
vt 0.74999958 0.53749979 0
vt 0.74999958 0.71875477 0
vt 0.625 0.53749979 0
vt 0.625 0.71875477 0

# 8 vertex normals
vn 0 -1 4.3711388e-08
vn 0 1 -4.3711388e-08
vn 0 4.3711388e-08 1
vn 1 0 0
vn 0 -4.3711388e-08 -1
vn -1 0 -0
vn -2.9802322e-08 -3.8744336e-08 -1
vn 2.9802322e-08 -3.8744336e-08 -1

# Mesh 'Skeleton' with 36 faces
g Skeleton
usemtl 02 - Default
f  1/1/1 2/2/1 3/3/1 4/4/1
f  5/5/2 6/1/2 7/2/2 8/6/2
f  1/7/3 4/8/3 6/1/3 5/5/3
f  4/8/4 3/9/4 7/10/4 6/1/4
f  3/9/5 2/11/5 8/12/5 7/10/5
f  2/13/6 1/7/6 5/5/6 8/14/6
f  9/15/1 10/16/1 11/17/1 12/18/1
f  13/19/2 14/18/2 15/15/2 16/20/2
f  9/21/3 12/22/3 14/18/3 13/19/3
f  12/22/4 11/23/4 15/17/4 14/18/4
f  11/23/5 10/24/5 16/25/5 15/17/5
f  10/26/6 9/21/6 13/27/6 16/28/6
f  17/29/1 18/30/1 19/31/1 20/32/1
f  21/33/2 22/29/2 23/30/2 24/34/2
f  17/35/3 20/36/3 22/29/3 21/33/3
f  20/36/4 19/37/4 23/32/4 22/29/4
f  19/37/7 18/38/7 24/39/7 23/32/7
f  18/40/6 17/35/6 21/33/6 24/41/6
f  25/29/1 26/32/1 27/31/1 28/30/1
f  29/33/2 30/34/2 31/30/2 32/29/2
f  25/35/3 29/33/3 32/29/3 26/36/3
f  26/36/6 32/29/6 31/32/6 27/37/6
f  27/37/8 31/32/8 30/39/8 28/38/8
f  28/40/4 30/41/4 29/33/4 25/35/4
f  33/29/1 34/32/1 35/31/1 36/30/1
f  37/33/2 38/34/2 39/30/2 40/29/2
f  33/35/3 37/33/3 40/29/3 34/36/3
f  34/36/6 40/29/6 39/32/6 35/37/6
f  35/37/8 39/32/8 38/39/8 36/38/8
f  36/40/4 38/41/4 37/33/4 33/35/4
f  41/29/1 42/30/1 43/31/1 44/32/1
f  45/33/2 46/29/2 47/30/2 48/34/2
f  41/35/3 44/36/3 46/29/3 45/33/3
f  44/36/4 43/37/4 47/32/4 46/29/4
f  43/37/7 42/38/7 48/39/7 47/32/7
f  42/40/6 41/35/6 45/33/6 48/41/6

